%TF.GenerationSoftware,Altium Limited,DefaultClient, ()*%
G04 Layer_Physical_Order=2*
G04 Layer_Color=16711680*
%FSLAX26Y26*%
%MOIN*%
%TF.SameCoordinates,A8440E4E-9477-41F0-85EB-1FC8FE2754A5*%
%TF.FilePolarity,Positive*%
%TF.FileFunction,Copper,L2,Bot,Signal*%
%TF.Part,Single*%
G01*
G75*
%TA.AperFunction,Conductor*%
%ADD11C,0.010000*%
%ADD12C,0.030000*%
%TA.AperFunction,ComponentPad*%
%ADD14C,0.059055*%
%ADD15R,0.059055X0.059055*%
%ADD16C,0.060000*%
%ADD17C,0.041339*%
%ADD18R,0.041339X0.041339*%
%ADD19C,0.150000*%
%ADD20C,0.070000*%
%ADD21C,0.078740*%
%ADD22R,0.078740X0.078740*%
%TA.AperFunction,ViaPad*%
%ADD23C,0.150000*%
%TA.AperFunction,ComponentPad*%
%ADD24O,0.078740X0.039370*%
%ADD25O,0.078740X0.039370*%
%ADD26C,0.050000*%
%ADD27C,0.075000*%
%ADD28R,0.061024X0.061024*%
%ADD29C,0.061024*%
%ADD30C,0.080000*%
G36*
X8950000Y1000000D02*
X0D01*
Y5000000D01*
X8950000D01*
Y1000000D01*
D02*
G37*
%LPC*%
G36*
X8783372Y4910000D02*
X8780000D01*
Y4830000D01*
X8860000D01*
Y4833372D01*
X8856734Y4849794D01*
X8850326Y4865263D01*
X8841024Y4879184D01*
X8829184Y4891024D01*
X8815263Y4900326D01*
X8799794Y4906734D01*
X8783372Y4910000D01*
D02*
G37*
G36*
X8770000D02*
X8766628D01*
X8750206Y4906734D01*
X8734737Y4900326D01*
X8720816Y4891024D01*
X8708976Y4879184D01*
X8699674Y4865263D01*
X8693266Y4849794D01*
X8690000Y4833372D01*
Y4830000D01*
X8770000D01*
Y4910000D01*
D02*
G37*
G36*
X183372Y4885000D02*
X180000D01*
Y4805000D01*
X260000D01*
Y4808372D01*
X256733Y4824794D01*
X250326Y4840263D01*
X241024Y4854184D01*
X229184Y4866024D01*
X215263Y4875326D01*
X199794Y4881734D01*
X183372Y4885000D01*
D02*
G37*
G36*
X170000D02*
X166628D01*
X150206Y4881734D01*
X134737Y4875326D01*
X120816Y4866024D01*
X108976Y4854184D01*
X99674Y4840263D01*
X93266Y4824794D01*
X90000Y4808372D01*
Y4805000D01*
X170000D01*
Y4885000D01*
D02*
G37*
G36*
X8860000Y4820000D02*
X8780000D01*
Y4740000D01*
X8783372D01*
X8799794Y4743266D01*
X8815263Y4749674D01*
X8829184Y4758976D01*
X8841024Y4770816D01*
X8850326Y4784737D01*
X8856734Y4800206D01*
X8860000Y4816628D01*
Y4820000D01*
D02*
G37*
G36*
X8770000D02*
X8690000D01*
Y4816628D01*
X8693266Y4800206D01*
X8699674Y4784737D01*
X8708976Y4770816D01*
X8720816Y4758976D01*
X8734737Y4749674D01*
X8750206Y4743266D01*
X8766628Y4740000D01*
X8770000D01*
Y4820000D01*
D02*
G37*
G36*
X260000Y4795000D02*
X180000D01*
Y4715000D01*
X183372D01*
X199794Y4718266D01*
X215263Y4724674D01*
X229184Y4733976D01*
X241024Y4745816D01*
X250326Y4759737D01*
X256733Y4775206D01*
X260000Y4791628D01*
Y4795000D01*
D02*
G37*
G36*
X170000D02*
X90000D01*
Y4791628D01*
X93266Y4775206D01*
X99674Y4759737D01*
X108976Y4745816D01*
X120816Y4733976D01*
X134737Y4724674D01*
X150206Y4718266D01*
X166628Y4715000D01*
X170000D01*
Y4795000D01*
D02*
G37*
G36*
X7351253Y4787504D02*
X7338747D01*
X7326666Y4784267D01*
X7315834Y4778014D01*
X7306990Y4769170D01*
X7300737Y4758338D01*
X7297500Y4746257D01*
Y4733751D01*
X7300737Y4721670D01*
X7306990Y4710838D01*
X7315834Y4701994D01*
X7326666Y4695741D01*
X7338747Y4692504D01*
X7351253D01*
X7363334Y4695741D01*
X7374166Y4701994D01*
X7383010Y4710838D01*
X7389263Y4721670D01*
X7392500Y4733751D01*
Y4746257D01*
X7389263Y4758338D01*
X7383010Y4769170D01*
X7374166Y4778014D01*
X7363334Y4784267D01*
X7351253Y4787504D01*
D02*
G37*
G36*
X4370266Y4700000D02*
X4370000D01*
Y4665000D01*
X4405000D01*
Y4665266D01*
X4402274Y4675439D01*
X4397008Y4684561D01*
X4389561Y4692008D01*
X4380439Y4697274D01*
X4370266Y4700000D01*
D02*
G37*
G36*
X4360000D02*
X4359734D01*
X4349561Y4697274D01*
X4340439Y4692008D01*
X4332992Y4684561D01*
X4327726Y4675439D01*
X4325000Y4665266D01*
Y4665000D01*
X4360000D01*
Y4700000D01*
D02*
G37*
G36*
X4405000Y4655000D02*
X4370000D01*
Y4620000D01*
X4370266D01*
X4380439Y4622726D01*
X4389561Y4627992D01*
X4397008Y4635439D01*
X4402274Y4644561D01*
X4405000Y4654734D01*
Y4655000D01*
D02*
G37*
G36*
X4360000D02*
X4325000D01*
Y4654734D01*
X4327726Y4644561D01*
X4332992Y4635439D01*
X4340439Y4627992D01*
X4349561Y4622726D01*
X4359734Y4620000D01*
X4360000D01*
Y4655000D01*
D02*
G37*
G36*
X6951253Y4787504D02*
X6938747D01*
X6926666Y4784267D01*
X6915834Y4778014D01*
X6906990Y4769170D01*
X6900737Y4758338D01*
X6897500Y4746257D01*
Y4733751D01*
X6900737Y4721670D01*
X6906990Y4710838D01*
X6915834Y4701994D01*
X6919510Y4699872D01*
Y4566732D01*
X6921450Y4556977D01*
X6926976Y4548708D01*
X6955575Y4520109D01*
X6953661Y4515490D01*
X6675411D01*
X6669270Y4521630D01*
X6660257Y4526834D01*
X6650204Y4529528D01*
X6639796D01*
X6629743Y4526834D01*
X6620730Y4521630D01*
X6613370Y4514270D01*
X6608166Y4505257D01*
X6605472Y4495204D01*
Y4484796D01*
X6608166Y4474743D01*
X6613370Y4465730D01*
X6620730Y4458370D01*
X6629743Y4453166D01*
X6639796Y4450472D01*
X6650204D01*
X6660257Y4453166D01*
X6669270Y4458370D01*
X6675411Y4464510D01*
X6990653D01*
X6996242Y4458921D01*
Y4428268D01*
X6998182Y4418514D01*
X7003708Y4410244D01*
X7241976Y4171976D01*
X7250245Y4166450D01*
X7260000Y4164510D01*
X7516442D01*
X7549510Y4131442D01*
Y2029000D01*
X7551450Y2019245D01*
X7556976Y2010976D01*
X7675976Y1891976D01*
X7684245Y1886450D01*
X7694000Y1884510D01*
X7770687D01*
X7772868Y1879510D01*
X7769385Y1874971D01*
X7766394Y1867749D01*
X7765374Y1860000D01*
X7766394Y1852251D01*
X7769385Y1845029D01*
X7774143Y1838828D01*
X7775874Y1837500D01*
Y1832500D01*
X7774143Y1831172D01*
X7769385Y1824971D01*
X7766394Y1817749D01*
X7766032Y1815000D01*
X7815000D01*
X7863968D01*
X7863606Y1817749D01*
X7860615Y1824971D01*
X7855857Y1831172D01*
X7854126Y1832500D01*
Y1837500D01*
X7855857Y1838828D01*
X7860615Y1845029D01*
X7863606Y1852251D01*
X7864626Y1860000D01*
X7863606Y1867749D01*
X7860615Y1874971D01*
X7855857Y1881172D01*
X7854126Y1882500D01*
Y1887500D01*
X7855857Y1888828D01*
X7860615Y1895029D01*
X7863606Y1902251D01*
X7864626Y1910000D01*
X7863606Y1917749D01*
X7860615Y1924971D01*
X7855857Y1931172D01*
X7849656Y1935930D01*
X7842434Y1938921D01*
X7834685Y1939941D01*
X7795315D01*
X7787566Y1938921D01*
X7780344Y1935930D01*
X7779771Y1935490D01*
X7704558D01*
X7600490Y2039558D01*
Y4142000D01*
X7598550Y4151755D01*
X7593024Y4160024D01*
X7545024Y4208024D01*
X7536755Y4213550D01*
X7527000Y4215490D01*
X7270558D01*
X7047222Y4438826D01*
Y4458921D01*
X7053740Y4465439D01*
X7059006Y4474561D01*
X7061732Y4484734D01*
Y4495266D01*
X7059006Y4505439D01*
X7053740Y4514561D01*
X7046293Y4522008D01*
X7037171Y4527274D01*
X7026998Y4530000D01*
X7017780D01*
X6970490Y4577290D01*
Y4699872D01*
X6974166Y4701994D01*
X6983010Y4710838D01*
X6989263Y4721670D01*
X6992500Y4733751D01*
Y4746257D01*
X6989263Y4758338D01*
X6983010Y4769170D01*
X6974166Y4778014D01*
X6963334Y4784267D01*
X6951253Y4787504D01*
D02*
G37*
G36*
X7243534Y4530000D02*
X7243268D01*
Y4495000D01*
X7278268D01*
Y4495266D01*
X7275542Y4505439D01*
X7270276Y4514561D01*
X7262829Y4522008D01*
X7253707Y4527274D01*
X7243534Y4530000D01*
D02*
G37*
G36*
X6334528Y4529528D02*
X6300000D01*
Y4495000D01*
X6334528D01*
Y4529528D01*
D02*
G37*
G36*
X6290000D02*
X6255472D01*
Y4495000D01*
X6290000D01*
Y4529528D01*
D02*
G37*
G36*
X7233268Y4530000D02*
X7233002D01*
X7222829Y4527274D01*
X7213707Y4522008D01*
X7206260Y4514561D01*
X7200994Y4505439D01*
X7198268Y4495266D01*
Y4495000D01*
X7233268D01*
Y4530000D01*
D02*
G37*
G36*
X6334528Y4485000D02*
X6300000D01*
Y4450472D01*
X6334528D01*
Y4485000D01*
D02*
G37*
G36*
X6290000D02*
X6255472D01*
Y4450472D01*
X6290000D01*
Y4485000D01*
D02*
G37*
G36*
X7278268D02*
X7243268D01*
Y4450000D01*
X7243534D01*
X7253707Y4452726D01*
X7262829Y4457992D01*
X7270276Y4465439D01*
X7275542Y4474561D01*
X7278268Y4484734D01*
Y4485000D01*
D02*
G37*
G36*
X7233268D02*
X7198268D01*
Y4484734D01*
X7200994Y4474561D01*
X7206260Y4465439D01*
X7213707Y4457992D01*
X7222829Y4452726D01*
X7233002Y4450000D01*
X7233268D01*
Y4485000D01*
D02*
G37*
G36*
X3711253Y4437496D02*
X3710000D01*
Y4394996D01*
X3752500D01*
Y4396249D01*
X3749263Y4408330D01*
X3743010Y4419162D01*
X3734166Y4428006D01*
X3723334Y4434259D01*
X3711253Y4437496D01*
D02*
G37*
G36*
X3700000D02*
X3698747D01*
X3686666Y4434259D01*
X3675834Y4428006D01*
X3666990Y4419162D01*
X3660737Y4408330D01*
X3657500Y4396249D01*
Y4394996D01*
X3700000D01*
Y4437496D01*
D02*
G37*
G36*
X6650204Y4429528D02*
X6639796D01*
X6629743Y4426834D01*
X6620730Y4421630D01*
X6613370Y4414270D01*
X6608166Y4405257D01*
X6605472Y4395204D01*
Y4384796D01*
X6608166Y4374743D01*
X6613370Y4365730D01*
X6620730Y4358370D01*
X6629743Y4353166D01*
X6639796Y4350472D01*
X6650204D01*
X6660257Y4353166D01*
X6669270Y4358370D01*
X6676630Y4365730D01*
X6681834Y4374743D01*
X6684528Y4384796D01*
Y4395204D01*
X6681834Y4405257D01*
X6676630Y4414270D01*
X6669270Y4421630D01*
X6660257Y4426834D01*
X6650204Y4429528D01*
D02*
G37*
G36*
X4111253Y4437496D02*
X4098747D01*
X4086666Y4434259D01*
X4075834Y4428006D01*
X4066990Y4419162D01*
X4060737Y4408330D01*
X4057500Y4396249D01*
Y4383743D01*
X4060737Y4371662D01*
X4066990Y4360830D01*
X4075834Y4351986D01*
X4086666Y4345733D01*
X4098747Y4342496D01*
X4111253D01*
X4123334Y4345733D01*
X4134166Y4351986D01*
X4143010Y4360830D01*
X4149263Y4371662D01*
X4152500Y4383743D01*
Y4396249D01*
X4149263Y4408330D01*
X4143010Y4419162D01*
X4134166Y4428006D01*
X4123334Y4434259D01*
X4111253Y4437496D01*
D02*
G37*
G36*
X3752500Y4384996D02*
X3710000D01*
Y4342496D01*
X3711253D01*
X3723334Y4345733D01*
X3734166Y4351986D01*
X3743010Y4360830D01*
X3749263Y4371662D01*
X3752500Y4383743D01*
Y4384996D01*
D02*
G37*
G36*
X3700000D02*
X3657500D01*
Y4383743D01*
X3660737Y4371662D01*
X3666990Y4360830D01*
X3675834Y4351986D01*
X3686666Y4345733D01*
X3698747Y4342496D01*
X3700000D01*
Y4384996D01*
D02*
G37*
G36*
X4685333Y4415512D02*
X4674667D01*
X4664363Y4412751D01*
X4655125Y4407417D01*
X4647583Y4399875D01*
X4642249Y4390637D01*
X4639488Y4380333D01*
Y4369667D01*
X4642249Y4359363D01*
X4647583Y4350125D01*
X4655125Y4342583D01*
X4664363Y4337249D01*
X4674667Y4334488D01*
X4685333D01*
X4695637Y4337249D01*
X4704875Y4342583D01*
X4712417Y4350125D01*
X4717751Y4359363D01*
X4720512Y4369667D01*
Y4380333D01*
X4717751Y4390637D01*
X4712417Y4399875D01*
X4704875Y4407417D01*
X4695637Y4412751D01*
X4685333Y4415512D01*
D02*
G37*
G36*
X7270266Y4335000D02*
X7270000D01*
Y4300000D01*
X7305000D01*
Y4300266D01*
X7302274Y4310439D01*
X7297008Y4319561D01*
X7289561Y4327008D01*
X7280439Y4332274D01*
X7270266Y4335000D01*
D02*
G37*
G36*
X7260000D02*
X7259734D01*
X7249561Y4332274D01*
X7240439Y4327008D01*
X7232992Y4319561D01*
X7227726Y4310439D01*
X7225000Y4300266D01*
Y4300000D01*
X7260000D01*
Y4335000D01*
D02*
G37*
G36*
X5031583Y4350000D02*
X5018417D01*
X5005701Y4346592D01*
X4994299Y4340010D01*
X4984990Y4330701D01*
X4978408Y4319299D01*
X4977334Y4315294D01*
X4877000D01*
X4871147Y4314130D01*
X4866186Y4310814D01*
X4845665Y4290294D01*
X4720512D01*
Y4315512D01*
X4639488D01*
Y4290294D01*
X4145000D01*
X4139147Y4289130D01*
X4134186Y4285814D01*
X4069186Y4220814D01*
X4065870Y4215853D01*
X4064706Y4210000D01*
Y4066584D01*
X4061169Y4064541D01*
X4055459Y4058831D01*
X4051421Y4051838D01*
X4049331Y4044038D01*
Y4035962D01*
X4051421Y4028162D01*
X4055459Y4021169D01*
X4061169Y4015459D01*
X4068162Y4011421D01*
X4075962Y4009331D01*
X4084038D01*
X4091838Y4011421D01*
X4098831Y4015459D01*
X4101645Y4018272D01*
X4105000Y4020820D01*
X4108355Y4018272D01*
X4111169Y4015459D01*
X4118162Y4011421D01*
X4125962Y4009331D01*
X4134038D01*
X4141838Y4011421D01*
X4144331Y4012860D01*
X4149331Y4009973D01*
Y4009331D01*
X4175000D01*
Y4040000D01*
Y4070669D01*
X4149331D01*
Y4070027D01*
X4144331Y4067140D01*
X4141838Y4068579D01*
X4134038Y4070669D01*
X4125962D01*
X4118162Y4068579D01*
X4111169Y4064541D01*
X4108355Y4061728D01*
X4105000Y4059180D01*
X4101645Y4061728D01*
X4098831Y4064541D01*
X4095294Y4066584D01*
Y4203665D01*
X4151335Y4259706D01*
X4639488D01*
Y4234488D01*
X4720512D01*
Y4259706D01*
X4852000D01*
X4857853Y4260870D01*
X4862814Y4264186D01*
X4883335Y4284706D01*
X4977334D01*
X4978408Y4280701D01*
X4984990Y4269299D01*
X4994299Y4259990D01*
X5005701Y4253408D01*
X5018417Y4250000D01*
X5031583D01*
X5044299Y4253408D01*
X5055701Y4259990D01*
X5065010Y4269299D01*
X5071592Y4280701D01*
X5075000Y4293417D01*
Y4306583D01*
X5071592Y4319299D01*
X5065010Y4330701D01*
X5055701Y4340010D01*
X5044299Y4346592D01*
X5031583Y4350000D01*
D02*
G37*
G36*
X7305000Y4290000D02*
X7270000D01*
Y4255000D01*
X7270266D01*
X7280439Y4257726D01*
X7289561Y4262992D01*
X7297008Y4270439D01*
X7302274Y4279561D01*
X7305000Y4289734D01*
Y4290000D01*
D02*
G37*
G36*
X7260000D02*
X7225000D01*
Y4289734D01*
X7227726Y4279561D01*
X7232992Y4270439D01*
X7240439Y4262992D01*
X7249561Y4257726D01*
X7259734Y4255000D01*
X7260000D01*
Y4290000D01*
D02*
G37*
G36*
X6300204Y4429528D02*
X6289796D01*
X6279743Y4426834D01*
X6270730Y4421630D01*
X6263370Y4414270D01*
X6258166Y4405257D01*
X6255472Y4395204D01*
Y4384796D01*
X6258166Y4374743D01*
X6263370Y4365730D01*
X6270730Y4358370D01*
X6279743Y4353166D01*
X6289796Y4350472D01*
X6300204D01*
X6310216Y4353155D01*
X6384186Y4279185D01*
X6389147Y4275870D01*
X6395000Y4274706D01*
X6608187D01*
X6613370Y4265730D01*
X6620730Y4258370D01*
X6629743Y4253166D01*
X6639796Y4250472D01*
X6650204D01*
X6660257Y4253166D01*
X6669270Y4258370D01*
X6676630Y4265730D01*
X6681813Y4274706D01*
X7013995D01*
X7016458Y4270439D01*
X7023905Y4262992D01*
X7033027Y4257726D01*
X7043200Y4255000D01*
X7053732D01*
X7063905Y4257726D01*
X7073027Y4262992D01*
X7080474Y4270439D01*
X7085740Y4279561D01*
X7088466Y4289734D01*
Y4300266D01*
X7085740Y4310439D01*
X7080474Y4319561D01*
X7073027Y4327008D01*
X7063905Y4332274D01*
X7053732Y4335000D01*
X7043200D01*
X7033027Y4332274D01*
X7023905Y4327008D01*
X7016458Y4319561D01*
X7011192Y4310439D01*
X7009813Y4305294D01*
X6681813D01*
X6676630Y4314270D01*
X6669270Y4321630D01*
X6660257Y4326834D01*
X6650204Y4329528D01*
X6639796D01*
X6629743Y4326834D01*
X6620730Y4321630D01*
X6613370Y4314270D01*
X6608187Y4305294D01*
X6401335D01*
X6331845Y4374784D01*
X6334528Y4384796D01*
Y4395204D01*
X6331834Y4405257D01*
X6326630Y4414270D01*
X6319270Y4421630D01*
X6310257Y4426834D01*
X6300204Y4429528D01*
D02*
G37*
G36*
X5231257Y4347500D02*
X5218751D01*
X5206670Y4344263D01*
X5195838Y4338010D01*
X5186994Y4329166D01*
X5180741Y4318334D01*
X5177504Y4306253D01*
Y4293747D01*
X5180741Y4281666D01*
X5182315Y4278940D01*
X5087669Y4184294D01*
X4794000D01*
X4788147Y4183130D01*
X4783186Y4179814D01*
X4570570Y3967199D01*
X4570439Y3967274D01*
X4560266Y3970000D01*
X4549734D01*
X4539561Y3967274D01*
X4530439Y3962008D01*
X4522992Y3954561D01*
X4517726Y3945439D01*
X4515000Y3935266D01*
Y3924734D01*
X4517726Y3914561D01*
X4522992Y3905439D01*
X4530439Y3897992D01*
X4539561Y3892726D01*
X4549734Y3890000D01*
X4560266D01*
X4570439Y3892726D01*
X4579561Y3897992D01*
X4587008Y3905439D01*
X4592274Y3914561D01*
X4595000Y3924734D01*
Y3935266D01*
X4592274Y3945439D01*
X4592199Y3945570D01*
X4800335Y4153706D01*
X5094004D01*
X5099857Y4154870D01*
X5104818Y4158186D01*
X5203944Y4257311D01*
X5206670Y4255737D01*
X5218751Y4252500D01*
X5231257D01*
X5243338Y4255737D01*
X5254170Y4261990D01*
X5263014Y4270834D01*
X5269267Y4281666D01*
X5272504Y4293747D01*
Y4306253D01*
X5269267Y4318334D01*
X5263014Y4329166D01*
X5254170Y4338010D01*
X5243338Y4344263D01*
X5231257Y4347500D01*
D02*
G37*
G36*
X6300204Y4329528D02*
X6289796D01*
X6279743Y4326834D01*
X6270730Y4321630D01*
X6263370Y4314270D01*
X6258166Y4305257D01*
X6255472Y4295204D01*
Y4284796D01*
X6258166Y4274743D01*
X6263370Y4265730D01*
X6270730Y4258370D01*
X6279743Y4253166D01*
X6289796Y4250472D01*
X6300204D01*
X6310257Y4253166D01*
X6319270Y4258370D01*
X6326630Y4265730D01*
X6331834Y4274743D01*
X6334528Y4284796D01*
Y4295204D01*
X6331834Y4305257D01*
X6326630Y4314270D01*
X6319270Y4321630D01*
X6310257Y4326834D01*
X6300204Y4329528D01*
D02*
G37*
G36*
X5031583Y4750000D02*
X5018417D01*
X5005701Y4746592D01*
X4994299Y4740010D01*
X4984990Y4730701D01*
X4981982Y4725490D01*
X4601850D01*
X4592095Y4723550D01*
X4583826Y4718024D01*
X4565802Y4700000D01*
X4556584D01*
X4546411Y4697274D01*
X4537289Y4692008D01*
X4529842Y4684561D01*
X4524576Y4675439D01*
X4521850Y4665266D01*
Y4654734D01*
X4524576Y4644561D01*
X4529842Y4635439D01*
X4537289Y4627992D01*
X4546411Y4622726D01*
X4556584Y4620000D01*
X4567116D01*
X4577289Y4622726D01*
X4586411Y4627992D01*
X4593858Y4635439D01*
X4599124Y4644561D01*
X4601850Y4654734D01*
Y4663952D01*
X4612408Y4674510D01*
X4981982D01*
X4984990Y4669299D01*
X4994299Y4659990D01*
X5005701Y4653408D01*
X5018417Y4650000D01*
X5031583D01*
X5044299Y4653408D01*
X5055701Y4659990D01*
X5065010Y4669299D01*
X5068018Y4674510D01*
X5184872D01*
X5186994Y4670834D01*
X5195838Y4661990D01*
X5206670Y4655737D01*
X5218751Y4652500D01*
X5231257D01*
X5243338Y4655737D01*
X5254170Y4661990D01*
X5263014Y4670834D01*
X5265136Y4674510D01*
X6019442D01*
X6129510Y4564442D01*
Y4235000D01*
X6131450Y4225245D01*
X6136976Y4216976D01*
X6186976Y4166976D01*
X6195245Y4161450D01*
X6205000Y4159510D01*
X6269589D01*
X6270730Y4158370D01*
X6279743Y4153166D01*
X6289796Y4150472D01*
X6300204D01*
X6310257Y4153166D01*
X6319270Y4158370D01*
X6326630Y4165730D01*
X6331834Y4174743D01*
X6334528Y4184796D01*
Y4195204D01*
X6331834Y4205257D01*
X6326630Y4214270D01*
X6319270Y4221630D01*
X6310257Y4226834D01*
X6300204Y4229528D01*
X6289796D01*
X6279743Y4226834D01*
X6270730Y4221630D01*
X6263370Y4214270D01*
X6261187Y4210490D01*
X6215558D01*
X6180490Y4245558D01*
Y4575000D01*
X6178550Y4584755D01*
X6173024Y4593024D01*
X6048024Y4718024D01*
X6039755Y4723550D01*
X6030000Y4725490D01*
X5265136D01*
X5263014Y4729166D01*
X5254170Y4738010D01*
X5243338Y4744263D01*
X5231257Y4747500D01*
X5218751D01*
X5206670Y4744263D01*
X5195838Y4738010D01*
X5186994Y4729166D01*
X5184872Y4725490D01*
X5068018D01*
X5065010Y4730701D01*
X5055701Y4740010D01*
X5044299Y4746592D01*
X5031583Y4750000D01*
D02*
G37*
G36*
X7228534Y4155000D02*
X7228268D01*
Y4120000D01*
X7263268D01*
Y4120266D01*
X7260542Y4130439D01*
X7255276Y4139561D01*
X7247829Y4147008D01*
X7238707Y4152274D01*
X7228534Y4155000D01*
D02*
G37*
G36*
X7218268D02*
X7218002D01*
X7207829Y4152274D01*
X7198707Y4147008D01*
X7191260Y4139561D01*
X7185994Y4130439D01*
X7183268Y4120266D01*
Y4120000D01*
X7218268D01*
Y4155000D01*
D02*
G37*
G36*
X7263268Y4110000D02*
X7228268D01*
Y4075000D01*
X7228534D01*
X7238707Y4077726D01*
X7247829Y4082992D01*
X7255276Y4090439D01*
X7260542Y4099561D01*
X7263268Y4109734D01*
Y4110000D01*
D02*
G37*
G36*
X7218268D02*
X7183268D01*
Y4109734D01*
X7185994Y4099561D01*
X7191260Y4090439D01*
X7198707Y4082992D01*
X7207829Y4077726D01*
X7218002Y4075000D01*
X7218268D01*
Y4110000D01*
D02*
G37*
G36*
X6650204Y4229528D02*
X6639796D01*
X6629743Y4226834D01*
X6620730Y4221630D01*
X6613370Y4214270D01*
X6608166Y4205257D01*
X6605472Y4195204D01*
Y4184796D01*
X6608166Y4174743D01*
X6613370Y4165730D01*
X6620730Y4158370D01*
X6629743Y4153166D01*
X6639796Y4150472D01*
X6650204D01*
X6660216Y4153155D01*
X6709186Y4104186D01*
X6714147Y4100870D01*
X6720000Y4099706D01*
X6969419D01*
X6969458Y4099561D01*
X6974724Y4090439D01*
X6982171Y4082992D01*
X6991293Y4077726D01*
X7001466Y4075000D01*
X7011998D01*
X7022171Y4077726D01*
X7031293Y4082992D01*
X7038740Y4090439D01*
X7044006Y4099561D01*
X7046732Y4109734D01*
Y4120266D01*
X7044006Y4130439D01*
X7038740Y4139561D01*
X7031293Y4147008D01*
X7022171Y4152274D01*
X7011998Y4155000D01*
X7001466D01*
X6991293Y4152274D01*
X6982171Y4147008D01*
X6974724Y4139561D01*
X6969458Y4130439D01*
X6969419Y4130294D01*
X6726335D01*
X6681845Y4174784D01*
X6684528Y4184796D01*
Y4195204D01*
X6681834Y4205257D01*
X6676630Y4214270D01*
X6669270Y4221630D01*
X6660257Y4226834D01*
X6650204Y4229528D01*
D02*
G37*
G36*
X4210669Y4070669D02*
X4185000D01*
Y4045000D01*
X4210669D01*
Y4070669D01*
D02*
G37*
G36*
Y4035000D02*
X4185000D01*
Y4009331D01*
X4210669D01*
Y4035000D01*
D02*
G37*
G36*
X8583372Y4095000D02*
X8566628D01*
X8550206Y4091733D01*
X8534737Y4085326D01*
X8520816Y4076024D01*
X8508976Y4064184D01*
X8499674Y4050263D01*
X8493266Y4034794D01*
X8490000Y4018372D01*
Y4001628D01*
X8493266Y3985206D01*
X8499674Y3969737D01*
X8508976Y3955816D01*
X8520816Y3943976D01*
X8534737Y3934674D01*
X8550206Y3928267D01*
X8566628Y3925000D01*
X8583372D01*
X8599794Y3928267D01*
X8615263Y3934674D01*
X8629184Y3943976D01*
X8641024Y3955816D01*
X8650326Y3969737D01*
X8656734Y3985206D01*
X8660000Y4001628D01*
Y4018372D01*
X8656734Y4034794D01*
X8650326Y4050263D01*
X8641024Y4064184D01*
X8629184Y4076024D01*
X8615263Y4085326D01*
X8599794Y4091733D01*
X8583372Y4095000D01*
D02*
G37*
G36*
X4757116Y3970000D02*
X4746584D01*
X4736411Y3967274D01*
X4727289Y3962008D01*
X4719842Y3954561D01*
X4714576Y3945439D01*
X4711850Y3935266D01*
Y3924734D01*
X4714576Y3914561D01*
X4719842Y3905439D01*
X4727289Y3897992D01*
X4736411Y3892726D01*
X4746584Y3890000D01*
X4757116D01*
X4767289Y3892726D01*
X4776411Y3897992D01*
X4783858Y3905439D01*
X4789124Y3914561D01*
X4791850Y3924734D01*
Y3935266D01*
X4789124Y3945439D01*
X4783858Y3954561D01*
X4776411Y3962008D01*
X4767289Y3967274D01*
X4757116Y3970000D01*
D02*
G37*
G36*
X7703372Y3564000D02*
X7686628D01*
X7670206Y3560733D01*
X7654737Y3554326D01*
X7640816Y3545024D01*
X7628976Y3533184D01*
X7619674Y3519263D01*
X7613266Y3503794D01*
X7610000Y3487372D01*
Y3470628D01*
X7613266Y3454206D01*
X7619674Y3438737D01*
X7628976Y3424816D01*
X7640816Y3412976D01*
X7654737Y3403674D01*
X7670206Y3397267D01*
X7686628Y3394000D01*
X7703372D01*
X7719794Y3397267D01*
X7735263Y3403674D01*
X7749184Y3412976D01*
X7761024Y3424816D01*
X7770326Y3438737D01*
X7776734Y3454206D01*
X7780000Y3470628D01*
Y3487372D01*
X7776734Y3503794D01*
X7770326Y3519263D01*
X7761024Y3533184D01*
X7749184Y3545024D01*
X7735263Y3554326D01*
X7719794Y3560733D01*
X7703372Y3564000D01*
D02*
G37*
G36*
X8583372Y3033000D02*
X8566628D01*
X8550206Y3029733D01*
X8534737Y3023326D01*
X8520816Y3014024D01*
X8508976Y3002184D01*
X8499674Y2988263D01*
X8493266Y2972794D01*
X8490000Y2956372D01*
Y2939628D01*
X8493266Y2923206D01*
X8499674Y2907737D01*
X8508976Y2893816D01*
X8520816Y2881976D01*
X8534737Y2872674D01*
X8550206Y2866267D01*
X8566628Y2863000D01*
X8583372D01*
X8599794Y2866267D01*
X8615263Y2872674D01*
X8629184Y2881976D01*
X8641024Y2893816D01*
X8650326Y2907737D01*
X8656734Y2923206D01*
X8660000Y2939628D01*
Y2956372D01*
X8656734Y2972794D01*
X8650326Y2988263D01*
X8641024Y3002184D01*
X8629184Y3014024D01*
X8615263Y3023326D01*
X8599794Y3029733D01*
X8583372Y3033000D01*
D02*
G37*
G36*
X6596257Y2812500D02*
X6583751D01*
X6571670Y2809263D01*
X6560838Y2803010D01*
X6551994Y2794166D01*
X6545741Y2783334D01*
X6544926Y2780294D01*
X6442000D01*
X6436147Y2779130D01*
X6431186Y2775814D01*
X6430665Y2775294D01*
X6335082D01*
X6334267Y2778334D01*
X6328014Y2789166D01*
X6319170Y2798010D01*
X6308338Y2804263D01*
X6296257Y2807500D01*
X6283751D01*
X6271670Y2804263D01*
X6260838Y2798010D01*
X6251994Y2789166D01*
X6245741Y2778334D01*
X6244926Y2775294D01*
X6050082D01*
X6049267Y2778334D01*
X6043014Y2789166D01*
X6034170Y2798010D01*
X6023338Y2804263D01*
X6011257Y2807500D01*
X5998751D01*
X5986670Y2804263D01*
X5975838Y2798010D01*
X5966994Y2789166D01*
X5960741Y2778334D01*
X5959926Y2775294D01*
X5805082D01*
X5804267Y2778334D01*
X5798014Y2789166D01*
X5789170Y2798010D01*
X5778338Y2804263D01*
X5766257Y2807500D01*
X5753751D01*
X5741670Y2804263D01*
X5730838Y2798010D01*
X5721994Y2789166D01*
X5715741Y2778334D01*
X5714926Y2775294D01*
X5621335D01*
X5620814Y2775814D01*
X5615853Y2779130D01*
X5610000Y2780294D01*
X5510082D01*
X5509267Y2783334D01*
X5503014Y2794166D01*
X5494170Y2803010D01*
X5483338Y2809263D01*
X5471257Y2812500D01*
X5458751D01*
X5446670Y2809263D01*
X5435838Y2803010D01*
X5426994Y2794166D01*
X5420741Y2783334D01*
X5419926Y2780294D01*
X5170082D01*
X5169267Y2783334D01*
X5163014Y2794166D01*
X5154170Y2803010D01*
X5143338Y2809263D01*
X5131257Y2812500D01*
X5118751D01*
X5106670Y2809263D01*
X5095838Y2803010D01*
X5086994Y2794166D01*
X5080741Y2783334D01*
X5079926Y2780294D01*
X4785078D01*
X4784263Y2783334D01*
X4778010Y2794166D01*
X4769166Y2803010D01*
X4758334Y2809263D01*
X4746253Y2812500D01*
X4733747D01*
X4721666Y2809263D01*
X4710834Y2803010D01*
X4701990Y2794166D01*
X4695737Y2783334D01*
X4694922Y2780294D01*
X4425078D01*
X4424263Y2783334D01*
X4418010Y2794166D01*
X4409166Y2803010D01*
X4398334Y2809263D01*
X4386253Y2812500D01*
X4373747D01*
X4361666Y2809263D01*
X4350834Y2803010D01*
X4341990Y2794166D01*
X4335737Y2783334D01*
X4334922Y2780294D01*
X4140078D01*
X4139263Y2783334D01*
X4133010Y2794166D01*
X4124166Y2803010D01*
X4113334Y2809263D01*
X4101253Y2812500D01*
X4088747D01*
X4076666Y2809263D01*
X4065834Y2803010D01*
X4056990Y2794166D01*
X4050737Y2783334D01*
X4049922Y2780294D01*
X3860078D01*
X3859263Y2783334D01*
X3853010Y2794166D01*
X3844166Y2803010D01*
X3833334Y2809263D01*
X3821253Y2812500D01*
X3808747D01*
X3796666Y2809263D01*
X3785834Y2803010D01*
X3776990Y2794166D01*
X3770737Y2783334D01*
X3769922Y2780294D01*
X3510078D01*
X3509263Y2783334D01*
X3503010Y2794166D01*
X3494166Y2803010D01*
X3483334Y2809263D01*
X3471253Y2812500D01*
X3458747D01*
X3446666Y2809263D01*
X3435834Y2803010D01*
X3426990Y2794166D01*
X3420737Y2783334D01*
X3417500Y2771253D01*
Y2758747D01*
X3420737Y2746666D01*
X3426990Y2735834D01*
X3435834Y2726990D01*
X3446666Y2720737D01*
X3458747Y2717500D01*
X3471253D01*
X3483334Y2720737D01*
X3494166Y2726990D01*
X3503010Y2735834D01*
X3509263Y2746666D01*
X3510078Y2749706D01*
X3769922D01*
X3770737Y2746666D01*
X3776990Y2735834D01*
X3785834Y2726990D01*
X3796666Y2720737D01*
X3808747Y2717500D01*
X3821253D01*
X3833334Y2720737D01*
X3844166Y2726990D01*
X3853010Y2735834D01*
X3859263Y2746666D01*
X3860078Y2749706D01*
X4049922D01*
X4050737Y2746666D01*
X4056990Y2735834D01*
X4065834Y2726990D01*
X4076666Y2720737D01*
X4088747Y2717500D01*
X4101253D01*
X4113334Y2720737D01*
X4124166Y2726990D01*
X4133010Y2735834D01*
X4139263Y2746666D01*
X4140078Y2749706D01*
X4334922D01*
X4335737Y2746666D01*
X4341990Y2735834D01*
X4350834Y2726990D01*
X4361666Y2720737D01*
X4373747Y2717500D01*
X4386253D01*
X4398334Y2720737D01*
X4409166Y2726990D01*
X4418010Y2735834D01*
X4424263Y2746666D01*
X4425078Y2749706D01*
X4694922D01*
X4695737Y2746666D01*
X4701990Y2735834D01*
X4710834Y2726990D01*
X4721666Y2720737D01*
X4733747Y2717500D01*
X4746253D01*
X4758334Y2720737D01*
X4769166Y2726990D01*
X4778010Y2735834D01*
X4784263Y2746666D01*
X4785078Y2749706D01*
X5079926D01*
X5080741Y2746666D01*
X5086994Y2735834D01*
X5095838Y2726990D01*
X5106670Y2720737D01*
X5118751Y2717500D01*
X5131257D01*
X5143338Y2720737D01*
X5154170Y2726990D01*
X5163014Y2735834D01*
X5169267Y2746666D01*
X5170082Y2749706D01*
X5419926D01*
X5420741Y2746666D01*
X5426994Y2735834D01*
X5435838Y2726990D01*
X5446670Y2720737D01*
X5458751Y2717500D01*
X5471257D01*
X5483338Y2720737D01*
X5494170Y2726990D01*
X5503014Y2735834D01*
X5509267Y2746666D01*
X5510082Y2749706D01*
X5603665D01*
X5604186Y2749186D01*
X5609147Y2745870D01*
X5615000Y2744706D01*
X5714926D01*
X5715741Y2741666D01*
X5721994Y2730834D01*
X5730838Y2721990D01*
X5741670Y2715737D01*
X5753751Y2712500D01*
X5766257D01*
X5778338Y2715737D01*
X5789170Y2721990D01*
X5798014Y2730834D01*
X5804267Y2741666D01*
X5805082Y2744706D01*
X5959926D01*
X5960741Y2741666D01*
X5966994Y2730834D01*
X5975838Y2721990D01*
X5986670Y2715737D01*
X5998751Y2712500D01*
X6011257D01*
X6023338Y2715737D01*
X6034170Y2721990D01*
X6043014Y2730834D01*
X6049267Y2741666D01*
X6050082Y2744706D01*
X6244926D01*
X6245741Y2741666D01*
X6251994Y2730834D01*
X6260838Y2721990D01*
X6271670Y2715737D01*
X6283751Y2712500D01*
X6296257D01*
X6308338Y2715737D01*
X6319170Y2721990D01*
X6328014Y2730834D01*
X6334267Y2741666D01*
X6335082Y2744706D01*
X6437000D01*
X6442853Y2745870D01*
X6447814Y2749186D01*
X6448335Y2749706D01*
X6544926D01*
X6545741Y2746666D01*
X6551994Y2735834D01*
X6560838Y2726990D01*
X6571670Y2720737D01*
X6583751Y2717500D01*
X6596257D01*
X6608338Y2720737D01*
X6619170Y2726990D01*
X6628014Y2735834D01*
X6634267Y2746666D01*
X6635082Y2749706D01*
X6755665D01*
X6756186Y2749186D01*
X6761147Y2745870D01*
X6767000Y2744706D01*
X6894926D01*
X6895741Y2741666D01*
X6901994Y2730834D01*
X6910838Y2721990D01*
X6921670Y2715737D01*
X6933751Y2712500D01*
X6946257D01*
X6958338Y2715737D01*
X6969170Y2721990D01*
X6978014Y2730834D01*
X6984267Y2741666D01*
X6987504Y2753747D01*
Y2766253D01*
X6984267Y2778334D01*
X6978014Y2789166D01*
X6969170Y2798010D01*
X6958338Y2804263D01*
X6946257Y2807500D01*
X6933751D01*
X6921670Y2804263D01*
X6910838Y2798010D01*
X6901994Y2789166D01*
X6895741Y2778334D01*
X6894926Y2775294D01*
X6773335D01*
X6772814Y2775814D01*
X6767853Y2779130D01*
X6762000Y2780294D01*
X6635082D01*
X6634267Y2783334D01*
X6628014Y2794166D01*
X6619170Y2803010D01*
X6608338Y2809263D01*
X6596257Y2812500D01*
D02*
G37*
G36*
X8393924Y2537000D02*
X8393000D01*
Y2497000D01*
X8433000D01*
Y2497924D01*
X8429933Y2509369D01*
X8424009Y2519631D01*
X8415631Y2528009D01*
X8405369Y2533933D01*
X8393924Y2537000D01*
D02*
G37*
G36*
X8383000D02*
X8382076D01*
X8370631Y2533933D01*
X8360369Y2528009D01*
X8351991Y2519631D01*
X8346067Y2509369D01*
X8343000Y2497924D01*
Y2497000D01*
X8383000D01*
Y2537000D01*
D02*
G37*
G36*
X8433000Y2487000D02*
X8393000D01*
Y2447000D01*
X8393924D01*
X8405369Y2450067D01*
X8415631Y2455991D01*
X8424009Y2464369D01*
X8429933Y2474631D01*
X8433000Y2486076D01*
Y2487000D01*
D02*
G37*
G36*
X8383000D02*
X8343000D01*
Y2486076D01*
X8346067Y2474631D01*
X8351991Y2464369D01*
X8360369Y2455991D01*
X8370631Y2450067D01*
X8382076Y2447000D01*
X8383000D01*
Y2487000D01*
D02*
G37*
G36*
X7893924Y2537000D02*
X7882076D01*
X7870631Y2533933D01*
X7860369Y2528009D01*
X7851991Y2519631D01*
X7846067Y2509369D01*
X7843000Y2497924D01*
Y2486076D01*
X7846067Y2474631D01*
X7851991Y2464369D01*
X7860369Y2455991D01*
X7870631Y2450067D01*
X7882076Y2447000D01*
X7893924D01*
X7905369Y2450067D01*
X7915631Y2455991D01*
X7924009Y2464369D01*
X7929933Y2474631D01*
X7933000Y2486076D01*
Y2497924D01*
X7929933Y2509369D01*
X7924009Y2519631D01*
X7915631Y2528009D01*
X7905369Y2533933D01*
X7893924Y2537000D01*
D02*
G37*
G36*
X6596257Y2412500D02*
X6583751D01*
X6571670Y2409263D01*
X6560838Y2403010D01*
X6551994Y2394166D01*
X6545741Y2383334D01*
X6542504Y2371253D01*
Y2358747D01*
X6545741Y2346666D01*
X6551994Y2335834D01*
X6560838Y2326990D01*
X6571670Y2320737D01*
X6583751Y2317500D01*
X6596257D01*
X6608338Y2320737D01*
X6619170Y2326990D01*
X6628014Y2335834D01*
X6634267Y2346666D01*
X6637504Y2358747D01*
Y2371253D01*
X6634267Y2383334D01*
X6628014Y2394166D01*
X6619170Y2403010D01*
X6608338Y2409263D01*
X6596257Y2412500D01*
D02*
G37*
G36*
X5471257D02*
X5458751D01*
X5446670Y2409263D01*
X5435838Y2403010D01*
X5426994Y2394166D01*
X5420741Y2383334D01*
X5417504Y2371253D01*
Y2358747D01*
X5420741Y2346666D01*
X5426994Y2335834D01*
X5435838Y2326990D01*
X5446670Y2320737D01*
X5458751Y2317500D01*
X5471257D01*
X5483338Y2320737D01*
X5494170Y2326990D01*
X5503014Y2335834D01*
X5509267Y2346666D01*
X5512504Y2358747D01*
Y2371253D01*
X5509267Y2383334D01*
X5503014Y2394166D01*
X5494170Y2403010D01*
X5483338Y2409263D01*
X5471257Y2412500D01*
D02*
G37*
G36*
X5131257D02*
X5118751D01*
X5106670Y2409263D01*
X5095838Y2403010D01*
X5086994Y2394166D01*
X5080741Y2383334D01*
X5077504Y2371253D01*
Y2358747D01*
X5080741Y2346666D01*
X5086994Y2335834D01*
X5095838Y2326990D01*
X5106670Y2320737D01*
X5118751Y2317500D01*
X5131257D01*
X5143338Y2320737D01*
X5154170Y2326990D01*
X5163014Y2335834D01*
X5169267Y2346666D01*
X5172504Y2358747D01*
Y2371253D01*
X5169267Y2383334D01*
X5163014Y2394166D01*
X5154170Y2403010D01*
X5143338Y2409263D01*
X5131257Y2412500D01*
D02*
G37*
G36*
X4746253D02*
X4733747D01*
X4721666Y2409263D01*
X4710834Y2403010D01*
X4701990Y2394166D01*
X4695737Y2383334D01*
X4692500Y2371253D01*
Y2358747D01*
X4695737Y2346666D01*
X4701990Y2335834D01*
X4710834Y2326990D01*
X4721666Y2320737D01*
X4733747Y2317500D01*
X4746253D01*
X4758334Y2320737D01*
X4769166Y2326990D01*
X4778010Y2335834D01*
X4784263Y2346666D01*
X4787500Y2358747D01*
Y2371253D01*
X4784263Y2383334D01*
X4778010Y2394166D01*
X4769166Y2403010D01*
X4758334Y2409263D01*
X4746253Y2412500D01*
D02*
G37*
G36*
X4386253D02*
X4373747D01*
X4361666Y2409263D01*
X4350834Y2403010D01*
X4341990Y2394166D01*
X4335737Y2383334D01*
X4332500Y2371253D01*
Y2358747D01*
X4335737Y2346666D01*
X4341990Y2335834D01*
X4350834Y2326990D01*
X4361666Y2320737D01*
X4373747Y2317500D01*
X4386253D01*
X4398334Y2320737D01*
X4409166Y2326990D01*
X4418010Y2335834D01*
X4424263Y2346666D01*
X4427500Y2358747D01*
Y2371253D01*
X4424263Y2383334D01*
X4418010Y2394166D01*
X4409166Y2403010D01*
X4398334Y2409263D01*
X4386253Y2412500D01*
D02*
G37*
G36*
X4101253D02*
X4088747D01*
X4076666Y2409263D01*
X4065834Y2403010D01*
X4056990Y2394166D01*
X4050737Y2383334D01*
X4047500Y2371253D01*
Y2358747D01*
X4050737Y2346666D01*
X4056990Y2335834D01*
X4065834Y2326990D01*
X4076666Y2320737D01*
X4088747Y2317500D01*
X4101253D01*
X4113334Y2320737D01*
X4124166Y2326990D01*
X4133010Y2335834D01*
X4139263Y2346666D01*
X4142500Y2358747D01*
Y2371253D01*
X4139263Y2383334D01*
X4133010Y2394166D01*
X4124166Y2403010D01*
X4113334Y2409263D01*
X4101253Y2412500D01*
D02*
G37*
G36*
X3821253D02*
X3808747D01*
X3796666Y2409263D01*
X3785834Y2403010D01*
X3776990Y2394166D01*
X3770737Y2383334D01*
X3767500Y2371253D01*
Y2358747D01*
X3770737Y2346666D01*
X3776990Y2335834D01*
X3785834Y2326990D01*
X3796666Y2320737D01*
X3808747Y2317500D01*
X3821253D01*
X3833334Y2320737D01*
X3844166Y2326990D01*
X3853010Y2335834D01*
X3859263Y2346666D01*
X3862500Y2358747D01*
Y2371253D01*
X3859263Y2383334D01*
X3853010Y2394166D01*
X3844166Y2403010D01*
X3833334Y2409263D01*
X3821253Y2412500D01*
D02*
G37*
G36*
X3471253D02*
X3458747D01*
X3446666Y2409263D01*
X3435834Y2403010D01*
X3426990Y2394166D01*
X3420737Y2383334D01*
X3417500Y2371253D01*
Y2358747D01*
X3420737Y2346666D01*
X3426990Y2335834D01*
X3435834Y2326990D01*
X3446666Y2320737D01*
X3458747Y2317500D01*
X3471253D01*
X3483334Y2320737D01*
X3494166Y2326990D01*
X3503010Y2335834D01*
X3509263Y2346666D01*
X3512500Y2358747D01*
Y2371253D01*
X3509263Y2383334D01*
X3503010Y2394166D01*
X3494166Y2403010D01*
X3483334Y2409263D01*
X3471253Y2412500D01*
D02*
G37*
G36*
X6946257Y2407500D02*
X6933751D01*
X6921670Y2404263D01*
X6910838Y2398010D01*
X6901994Y2389166D01*
X6895741Y2378334D01*
X6892504Y2366253D01*
Y2353747D01*
X6895741Y2341666D01*
X6901994Y2330834D01*
X6910838Y2321990D01*
X6921670Y2315737D01*
X6933751Y2312500D01*
X6946257D01*
X6958338Y2315737D01*
X6969170Y2321990D01*
X6978014Y2330834D01*
X6984267Y2341666D01*
X6987504Y2353747D01*
Y2366253D01*
X6984267Y2378334D01*
X6978014Y2389166D01*
X6969170Y2398010D01*
X6958338Y2404263D01*
X6946257Y2407500D01*
D02*
G37*
G36*
X6296257D02*
X6283751D01*
X6271670Y2404263D01*
X6260838Y2398010D01*
X6251994Y2389166D01*
X6245741Y2378334D01*
X6242504Y2366253D01*
Y2353747D01*
X6245741Y2341666D01*
X6251994Y2330834D01*
X6260838Y2321990D01*
X6271670Y2315737D01*
X6283751Y2312500D01*
X6296257D01*
X6308338Y2315737D01*
X6319170Y2321990D01*
X6328014Y2330834D01*
X6334267Y2341666D01*
X6337504Y2353747D01*
Y2366253D01*
X6334267Y2378334D01*
X6328014Y2389166D01*
X6319170Y2398010D01*
X6308338Y2404263D01*
X6296257Y2407500D01*
D02*
G37*
G36*
X6011257D02*
X5998751D01*
X5986670Y2404263D01*
X5975838Y2398010D01*
X5966994Y2389166D01*
X5960741Y2378334D01*
X5957504Y2366253D01*
Y2353747D01*
X5960741Y2341666D01*
X5966994Y2330834D01*
X5975838Y2321990D01*
X5986670Y2315737D01*
X5998751Y2312500D01*
X6011257D01*
X6023338Y2315737D01*
X6034170Y2321990D01*
X6043014Y2330834D01*
X6049267Y2341666D01*
X6052504Y2353747D01*
Y2366253D01*
X6049267Y2378334D01*
X6043014Y2389166D01*
X6034170Y2398010D01*
X6023338Y2404263D01*
X6011257Y2407500D01*
D02*
G37*
G36*
X5766257D02*
X5753751D01*
X5741670Y2404263D01*
X5730838Y2398010D01*
X5721994Y2389166D01*
X5715741Y2378334D01*
X5712504Y2366253D01*
Y2353747D01*
X5715741Y2341666D01*
X5721994Y2330834D01*
X5730838Y2321990D01*
X5741670Y2315737D01*
X5753751Y2312500D01*
X5766257D01*
X5778338Y2315737D01*
X5789170Y2321990D01*
X5798014Y2330834D01*
X5804267Y2341666D01*
X5807504Y2353747D01*
Y2366253D01*
X5804267Y2378334D01*
X5798014Y2389166D01*
X5789170Y2398010D01*
X5778338Y2404263D01*
X5766257Y2407500D01*
D02*
G37*
G36*
X6600266Y2091850D02*
X6589734D01*
X6579561Y2089124D01*
X6570439Y2083858D01*
X6562992Y2076411D01*
X6557726Y2067289D01*
X6557687Y2067144D01*
X6072313D01*
X6072274Y2067289D01*
X6067008Y2076411D01*
X6059561Y2083858D01*
X6050439Y2089124D01*
X6040266Y2091850D01*
X6029734D01*
X6019561Y2089124D01*
X6010439Y2083858D01*
X6002992Y2076411D01*
X5997726Y2067289D01*
X5997687Y2067144D01*
X5512313D01*
X5512274Y2067289D01*
X5507008Y2076411D01*
X5499561Y2083858D01*
X5490439Y2089124D01*
X5480266Y2091850D01*
X5469734D01*
X5459561Y2089124D01*
X5450439Y2083858D01*
X5442992Y2076411D01*
X5437726Y2067289D01*
X5435000Y2057116D01*
Y2046584D01*
X5437726Y2036411D01*
X5442992Y2027289D01*
X5450439Y2019842D01*
X5459561Y2014576D01*
X5469734Y2011850D01*
X5480266D01*
X5490439Y2014576D01*
X5499561Y2019842D01*
X5507008Y2027289D01*
X5512274Y2036411D01*
X5512313Y2036556D01*
X5997687D01*
X5997726Y2036411D01*
X6002992Y2027289D01*
X6010439Y2019842D01*
X6019561Y2014576D01*
X6029734Y2011850D01*
X6040266D01*
X6050439Y2014576D01*
X6059561Y2019842D01*
X6067008Y2027289D01*
X6072274Y2036411D01*
X6072313Y2036556D01*
X6557687D01*
X6557726Y2036411D01*
X6562992Y2027289D01*
X6570439Y2019842D01*
X6579561Y2014576D01*
X6589734Y2011850D01*
X6600266D01*
X6610439Y2014576D01*
X6610570Y2014651D01*
X6654706Y1970515D01*
Y1542144D01*
X6347313D01*
X6347274Y1542289D01*
X6342008Y1551411D01*
X6334561Y1558858D01*
X6325439Y1564124D01*
X6315266Y1566850D01*
X6304734D01*
X6294561Y1564124D01*
X6285439Y1558858D01*
X6277992Y1551411D01*
X6272726Y1542289D01*
X6272687Y1542144D01*
X5812313D01*
X5812274Y1542289D01*
X5807008Y1551411D01*
X5799561Y1558858D01*
X5790439Y1564124D01*
X5780266Y1566850D01*
X5769734D01*
X5759561Y1564124D01*
X5750439Y1558858D01*
X5742992Y1551411D01*
X5737726Y1542289D01*
X5737687Y1542144D01*
X5237313D01*
X5237274Y1542289D01*
X5232008Y1551411D01*
X5224561Y1558858D01*
X5215439Y1564124D01*
X5205266Y1566850D01*
X5194734D01*
X5184561Y1564124D01*
X5175439Y1558858D01*
X5167992Y1551411D01*
X5162726Y1542289D01*
X5162687Y1542144D01*
X4742313D01*
X4742274Y1542289D01*
X4737008Y1551411D01*
X4729561Y1558858D01*
X4720439Y1564124D01*
X4710266Y1566850D01*
X4699734D01*
X4689561Y1564124D01*
X4680439Y1558858D01*
X4672992Y1551411D01*
X4667726Y1542289D01*
X4667687Y1542144D01*
X4137313D01*
X4137274Y1542289D01*
X4132008Y1551411D01*
X4124561Y1558858D01*
X4115439Y1564124D01*
X4105266Y1566850D01*
X4094734D01*
X4084561Y1564124D01*
X4075439Y1558858D01*
X4067992Y1551411D01*
X4062726Y1542289D01*
X4062687Y1542144D01*
X3557313D01*
X3557274Y1542289D01*
X3552008Y1551411D01*
X3544561Y1558858D01*
X3535439Y1564124D01*
X3525266Y1566850D01*
X3514734D01*
X3504561Y1564124D01*
X3495439Y1558858D01*
X3487992Y1551411D01*
X3482726Y1542289D01*
X3480000Y1532116D01*
Y1521584D01*
X3482726Y1511411D01*
X3487992Y1502289D01*
X3495439Y1494842D01*
X3504561Y1489576D01*
X3514734Y1486850D01*
X3525266D01*
X3535439Y1489576D01*
X3544561Y1494842D01*
X3552008Y1502289D01*
X3557274Y1511411D01*
X3557313Y1511556D01*
X4062687D01*
X4062726Y1511411D01*
X4067992Y1502289D01*
X4075439Y1494842D01*
X4084561Y1489576D01*
X4094734Y1486850D01*
X4105266D01*
X4115439Y1489576D01*
X4124561Y1494842D01*
X4132008Y1502289D01*
X4137274Y1511411D01*
X4137313Y1511556D01*
X4667687D01*
X4667726Y1511411D01*
X4672992Y1502289D01*
X4680439Y1494842D01*
X4689561Y1489576D01*
X4699734Y1486850D01*
X4710266D01*
X4720439Y1489576D01*
X4729561Y1494842D01*
X4737008Y1502289D01*
X4742274Y1511411D01*
X4742313Y1511556D01*
X5162687D01*
X5162726Y1511411D01*
X5167992Y1502289D01*
X5175439Y1494842D01*
X5184561Y1489576D01*
X5194734Y1486850D01*
X5205266D01*
X5215439Y1489576D01*
X5224561Y1494842D01*
X5232008Y1502289D01*
X5237274Y1511411D01*
X5237313Y1511556D01*
X5737687D01*
X5737726Y1511411D01*
X5742992Y1502289D01*
X5750439Y1494842D01*
X5759561Y1489576D01*
X5769734Y1486850D01*
X5780266D01*
X5790439Y1489576D01*
X5799561Y1494842D01*
X5807008Y1502289D01*
X5812274Y1511411D01*
X5812313Y1511556D01*
X6272687D01*
X6272726Y1511411D01*
X6277992Y1502289D01*
X6285439Y1494842D01*
X6294561Y1489576D01*
X6304734Y1486850D01*
X6315266D01*
X6325439Y1489576D01*
X6334561Y1494842D01*
X6342008Y1502289D01*
X6347274Y1511411D01*
X6347313Y1511556D01*
X6842687D01*
X6842726Y1511411D01*
X6847992Y1502289D01*
X6855439Y1494842D01*
X6864561Y1489576D01*
X6874734Y1486850D01*
X6885266D01*
X6895439Y1489576D01*
X6904561Y1494842D01*
X6912008Y1502289D01*
X6917274Y1511411D01*
X6920000Y1521584D01*
Y1532116D01*
X6917274Y1542289D01*
X6912008Y1551411D01*
X6904561Y1558858D01*
X6895439Y1564124D01*
X6885266Y1566850D01*
X6874734D01*
X6864561Y1564124D01*
X6855439Y1558858D01*
X6847992Y1551411D01*
X6842726Y1542289D01*
X6842687Y1542144D01*
X6685294D01*
Y1976850D01*
X6684130Y1982703D01*
X6680814Y1987664D01*
X6632199Y2036280D01*
X6632274Y2036411D01*
X6635000Y2046584D01*
Y2057116D01*
X6632274Y2067289D01*
X6627008Y2076411D01*
X6619561Y2083858D01*
X6610439Y2089124D01*
X6600266Y2091850D01*
D02*
G37*
G36*
X4380266D02*
X4369734D01*
X4359561Y2089124D01*
X4350439Y2083858D01*
X4342992Y2076411D01*
X4337726Y2067289D01*
X4337687Y2067144D01*
X3862313D01*
X3862274Y2067289D01*
X3857008Y2076411D01*
X3849561Y2083858D01*
X3840439Y2089124D01*
X3830266Y2091850D01*
X3819734D01*
X3809561Y2089124D01*
X3800439Y2083858D01*
X3792992Y2076411D01*
X3787726Y2067289D01*
X3785000Y2057116D01*
Y2046584D01*
X3787726Y2036411D01*
X3792992Y2027289D01*
X3800439Y2019842D01*
X3809561Y2014576D01*
X3819734Y2011850D01*
X3830266D01*
X3840439Y2014576D01*
X3849561Y2019842D01*
X3857008Y2027289D01*
X3862274Y2036411D01*
X3862313Y2036556D01*
X4337687D01*
X4337726Y2036411D01*
X4342992Y2027289D01*
X4350439Y2019842D01*
X4359561Y2014576D01*
X4369734Y2011850D01*
X4380266D01*
X4390439Y2014576D01*
X4399561Y2019842D01*
X4407008Y2027289D01*
X4412274Y2036411D01*
X4415000Y2046584D01*
Y2057116D01*
X4412274Y2067289D01*
X4407008Y2076411D01*
X4399561Y2083858D01*
X4390439Y2089124D01*
X4380266Y2091850D01*
D02*
G37*
G36*
X7534608Y1998426D02*
X7525392D01*
X7516490Y1996041D01*
X7508510Y1991433D01*
X7501993Y1984917D01*
X7497385Y1976936D01*
X7495000Y1968034D01*
Y1958818D01*
X7497385Y1949917D01*
X7501993Y1941936D01*
X7508510Y1935419D01*
X7516490Y1930811D01*
X7525392Y1928426D01*
X7534608D01*
X7543510Y1930811D01*
X7551490Y1935419D01*
X7558007Y1941936D01*
X7562615Y1949917D01*
X7565000Y1958818D01*
Y1968034D01*
X7562615Y1976936D01*
X7558007Y1984917D01*
X7551490Y1991433D01*
X7543510Y1996041D01*
X7534608Y1998426D01*
D02*
G37*
G36*
X8015266Y1998268D02*
X8004734D01*
X7994561Y1995542D01*
X7985439Y1990276D01*
X7977992Y1982829D01*
X7972726Y1973707D01*
X7970000Y1963534D01*
Y1953002D01*
X7972726Y1942829D01*
X7977992Y1933707D01*
X7985439Y1926260D01*
X7994561Y1920994D01*
X8004734Y1918268D01*
X8015266D01*
X8025439Y1920994D01*
X8034561Y1926260D01*
X8042008Y1933707D01*
X8047274Y1942829D01*
X8050000Y1953002D01*
Y1963534D01*
X8047274Y1973707D01*
X8042008Y1982829D01*
X8034561Y1990276D01*
X8025439Y1995542D01*
X8015266Y1998268D01*
D02*
G37*
G36*
X8330266Y1995000D02*
X8319734D01*
X8309561Y1992274D01*
X8300439Y1987008D01*
X8292992Y1979561D01*
X8287726Y1970439D01*
X8285000Y1960266D01*
Y1949734D01*
X8287726Y1939561D01*
X8292992Y1930439D01*
X8300439Y1922992D01*
X8309561Y1917726D01*
X8319734Y1915000D01*
X8330266D01*
X8340439Y1917726D01*
X8349561Y1922992D01*
X8357008Y1930439D01*
X8362274Y1939561D01*
X8365000Y1949734D01*
Y1960266D01*
X8362274Y1970439D01*
X8357008Y1979561D01*
X8349561Y1987008D01*
X8340439Y1992274D01*
X8330266Y1995000D01*
D02*
G37*
G36*
X6600266Y1895000D02*
X6589734D01*
X6579561Y1892274D01*
X6570439Y1887008D01*
X6562992Y1879561D01*
X6557726Y1870439D01*
X6555000Y1860266D01*
Y1849734D01*
X6557726Y1839561D01*
X6562992Y1830439D01*
X6570439Y1822992D01*
X6579561Y1817726D01*
X6589734Y1815000D01*
X6600266D01*
X6610439Y1817726D01*
X6619561Y1822992D01*
X6627008Y1830439D01*
X6632274Y1839561D01*
X6635000Y1849734D01*
Y1860266D01*
X6632274Y1870439D01*
X6627008Y1879561D01*
X6619561Y1887008D01*
X6610439Y1892274D01*
X6600266Y1895000D01*
D02*
G37*
G36*
X6040266D02*
X6029734D01*
X6019561Y1892274D01*
X6010439Y1887008D01*
X6002992Y1879561D01*
X5997726Y1870439D01*
X5995000Y1860266D01*
Y1849734D01*
X5997726Y1839561D01*
X6002992Y1830439D01*
X6010439Y1822992D01*
X6019561Y1817726D01*
X6029734Y1815000D01*
X6040266D01*
X6050439Y1817726D01*
X6059561Y1822992D01*
X6067008Y1830439D01*
X6072274Y1839561D01*
X6075000Y1849734D01*
Y1860266D01*
X6072274Y1870439D01*
X6067008Y1879561D01*
X6059561Y1887008D01*
X6050439Y1892274D01*
X6040266Y1895000D01*
D02*
G37*
G36*
X5480266D02*
X5469734D01*
X5459561Y1892274D01*
X5450439Y1887008D01*
X5442992Y1879561D01*
X5437726Y1870439D01*
X5435000Y1860266D01*
Y1849734D01*
X5437726Y1839561D01*
X5442992Y1830439D01*
X5450439Y1822992D01*
X5459561Y1817726D01*
X5469734Y1815000D01*
X5480266D01*
X5490439Y1817726D01*
X5499561Y1822992D01*
X5507008Y1830439D01*
X5512274Y1839561D01*
X5515000Y1849734D01*
Y1860266D01*
X5512274Y1870439D01*
X5507008Y1879561D01*
X5499561Y1887008D01*
X5490439Y1892274D01*
X5480266Y1895000D01*
D02*
G37*
G36*
X4380266D02*
X4369734D01*
X4359561Y1892274D01*
X4350439Y1887008D01*
X4342992Y1879561D01*
X4337726Y1870439D01*
X4335000Y1860266D01*
Y1849734D01*
X4337726Y1839561D01*
X4342992Y1830439D01*
X4350439Y1822992D01*
X4359561Y1817726D01*
X4369734Y1815000D01*
X4380266D01*
X4390439Y1817726D01*
X4399561Y1822992D01*
X4407008Y1830439D01*
X4412274Y1839561D01*
X4415000Y1849734D01*
Y1860266D01*
X4412274Y1870439D01*
X4407008Y1879561D01*
X4399561Y1887008D01*
X4390439Y1892274D01*
X4380266Y1895000D01*
D02*
G37*
G36*
X3830266D02*
X3819734D01*
X3809561Y1892274D01*
X3800439Y1887008D01*
X3792992Y1879561D01*
X3787726Y1870439D01*
X3785000Y1860266D01*
Y1849734D01*
X3787726Y1839561D01*
X3792992Y1830439D01*
X3800439Y1822992D01*
X3809561Y1817726D01*
X3819734Y1815000D01*
X3830266D01*
X3840439Y1817726D01*
X3849561Y1822992D01*
X3857008Y1830439D01*
X3862274Y1839561D01*
X3865000Y1849734D01*
Y1860266D01*
X3862274Y1870439D01*
X3857008Y1879561D01*
X3849561Y1887008D01*
X3840439Y1892274D01*
X3830266Y1895000D01*
D02*
G37*
G36*
X7863968Y1805000D02*
X7820000D01*
Y1780059D01*
X7834685D01*
X7842435Y1781079D01*
X7849656Y1784070D01*
X7855857Y1788828D01*
X7860615Y1795029D01*
X7863606Y1802251D01*
X7863968Y1805000D01*
D02*
G37*
G36*
X7810000D02*
X7766032D01*
X7766394Y1802251D01*
X7769385Y1795029D01*
X7774143Y1788828D01*
X7780344Y1784070D01*
X7787565Y1781079D01*
X7795315Y1780059D01*
X7810000D01*
Y1805000D01*
D02*
G37*
G36*
X7535000Y1801469D02*
Y1771574D01*
X7564895D01*
X7562615Y1780083D01*
X7558007Y1788064D01*
X7551490Y1794581D01*
X7543510Y1799189D01*
X7535000Y1801469D01*
D02*
G37*
G36*
X7525000D02*
X7516490Y1799189D01*
X7508510Y1794581D01*
X7501993Y1788064D01*
X7497385Y1780083D01*
X7495105Y1771574D01*
X7525000D01*
Y1801469D01*
D02*
G37*
G36*
X8330266Y1798150D02*
X8330000D01*
Y1763150D01*
X8365000D01*
Y1763416D01*
X8362274Y1773589D01*
X8357008Y1782711D01*
X8349561Y1790158D01*
X8340439Y1795424D01*
X8330266Y1798150D01*
D02*
G37*
G36*
X8320000D02*
X8319734D01*
X8309561Y1795424D01*
X8300439Y1790158D01*
X8292992Y1782711D01*
X8287726Y1773589D01*
X8285000Y1763416D01*
Y1763150D01*
X8320000D01*
Y1798150D01*
D02*
G37*
G36*
X8015266Y1781732D02*
X8015000D01*
Y1746732D01*
X8050000D01*
Y1746998D01*
X8047274Y1757171D01*
X8042008Y1766293D01*
X8034561Y1773740D01*
X8025439Y1779006D01*
X8015266Y1781732D01*
D02*
G37*
G36*
X8005000D02*
X8004734D01*
X7994561Y1779006D01*
X7985439Y1773740D01*
X7977992Y1766293D01*
X7972726Y1757171D01*
X7970000Y1746998D01*
Y1746732D01*
X8005000D01*
Y1781732D01*
D02*
G37*
G36*
X7564895Y1761574D02*
X7535000D01*
Y1731679D01*
X7543510Y1733959D01*
X7551490Y1738567D01*
X7558007Y1745083D01*
X7562615Y1753064D01*
X7564895Y1761574D01*
D02*
G37*
G36*
X7525000D02*
X7495105D01*
X7497385Y1753064D01*
X7501993Y1745083D01*
X7508510Y1738567D01*
X7516490Y1733959D01*
X7525000Y1731679D01*
Y1761574D01*
D02*
G37*
G36*
X8365000Y1753150D02*
X8330000D01*
Y1718150D01*
X8330266D01*
X8340439Y1720876D01*
X8349561Y1726142D01*
X8357008Y1733589D01*
X8362274Y1742711D01*
X8365000Y1752884D01*
Y1753150D01*
D02*
G37*
G36*
X8320000D02*
X8285000D01*
Y1752884D01*
X8287726Y1742711D01*
X8292992Y1733589D01*
X8300439Y1726142D01*
X8309561Y1720876D01*
X8319734Y1718150D01*
X8320000D01*
Y1753150D01*
D02*
G37*
G36*
X8050000Y1736732D02*
X8015000D01*
Y1701732D01*
X8015266D01*
X8025439Y1704458D01*
X8034561Y1709724D01*
X8042008Y1717171D01*
X8047274Y1726293D01*
X8050000Y1736466D01*
Y1736732D01*
D02*
G37*
G36*
X8005000D02*
X7970000D01*
Y1736466D01*
X7972726Y1726293D01*
X7977992Y1717171D01*
X7985439Y1709724D01*
X7994561Y1704458D01*
X8004734Y1701732D01*
X8005000D01*
Y1736732D01*
D02*
G37*
G36*
X7501249Y1587500D02*
X7488743D01*
X7476662Y1584263D01*
X7465830Y1578009D01*
X7456986Y1569166D01*
X7450733Y1558334D01*
X7447496Y1546254D01*
Y1533746D01*
X7450733Y1521666D01*
X7456986Y1510834D01*
X7465830Y1501991D01*
X7476662Y1495737D01*
X7488743Y1492500D01*
X7501249D01*
X7513330Y1495737D01*
X7524162Y1501991D01*
X7533006Y1510834D01*
X7539259Y1521666D01*
X7542496Y1533746D01*
Y1546254D01*
X7539259Y1558334D01*
X7533006Y1569166D01*
X7524162Y1578009D01*
X7513330Y1584263D01*
X7501249Y1587500D01*
D02*
G37*
G36*
X6885266Y1370000D02*
X6874734D01*
X6864561Y1367274D01*
X6855439Y1362008D01*
X6847992Y1354561D01*
X6842726Y1345439D01*
X6840000Y1335266D01*
Y1324734D01*
X6842726Y1314561D01*
X6847992Y1305439D01*
X6855439Y1297992D01*
X6864561Y1292726D01*
X6874734Y1290000D01*
X6885266D01*
X6895439Y1292726D01*
X6904561Y1297992D01*
X6912008Y1305439D01*
X6917274Y1314561D01*
X6920000Y1324734D01*
Y1335266D01*
X6917274Y1345439D01*
X6912008Y1354561D01*
X6904561Y1362008D01*
X6895439Y1367274D01*
X6885266Y1370000D01*
D02*
G37*
G36*
X6315266D02*
X6304734D01*
X6294561Y1367274D01*
X6285439Y1362008D01*
X6277992Y1354561D01*
X6272726Y1345439D01*
X6270000Y1335266D01*
Y1324734D01*
X6272726Y1314561D01*
X6277992Y1305439D01*
X6285439Y1297992D01*
X6294561Y1292726D01*
X6304734Y1290000D01*
X6315266D01*
X6325439Y1292726D01*
X6334561Y1297992D01*
X6342008Y1305439D01*
X6347274Y1314561D01*
X6350000Y1324734D01*
Y1335266D01*
X6347274Y1345439D01*
X6342008Y1354561D01*
X6334561Y1362008D01*
X6325439Y1367274D01*
X6315266Y1370000D01*
D02*
G37*
G36*
X5780266D02*
X5769734D01*
X5759561Y1367274D01*
X5750439Y1362008D01*
X5742992Y1354561D01*
X5737726Y1345439D01*
X5735000Y1335266D01*
Y1324734D01*
X5737726Y1314561D01*
X5742992Y1305439D01*
X5750439Y1297992D01*
X5759561Y1292726D01*
X5769734Y1290000D01*
X5780266D01*
X5790439Y1292726D01*
X5799561Y1297992D01*
X5807008Y1305439D01*
X5812274Y1314561D01*
X5815000Y1324734D01*
Y1335266D01*
X5812274Y1345439D01*
X5807008Y1354561D01*
X5799561Y1362008D01*
X5790439Y1367274D01*
X5780266Y1370000D01*
D02*
G37*
G36*
X5205266D02*
X5194734D01*
X5184561Y1367274D01*
X5175439Y1362008D01*
X5167992Y1354561D01*
X5162726Y1345439D01*
X5160000Y1335266D01*
Y1324734D01*
X5162726Y1314561D01*
X5167992Y1305439D01*
X5175439Y1297992D01*
X5184561Y1292726D01*
X5194734Y1290000D01*
X5205266D01*
X5215439Y1292726D01*
X5224561Y1297992D01*
X5232008Y1305439D01*
X5237274Y1314561D01*
X5240000Y1324734D01*
Y1335266D01*
X5237274Y1345439D01*
X5232008Y1354561D01*
X5224561Y1362008D01*
X5215439Y1367274D01*
X5205266Y1370000D01*
D02*
G37*
G36*
X4710266D02*
X4699734D01*
X4689561Y1367274D01*
X4680439Y1362008D01*
X4672992Y1354561D01*
X4667726Y1345439D01*
X4665000Y1335266D01*
Y1324734D01*
X4667726Y1314561D01*
X4672992Y1305439D01*
X4680439Y1297992D01*
X4689561Y1292726D01*
X4699734Y1290000D01*
X4710266D01*
X4720439Y1292726D01*
X4729561Y1297992D01*
X4737008Y1305439D01*
X4742274Y1314561D01*
X4745000Y1324734D01*
Y1335266D01*
X4742274Y1345439D01*
X4737008Y1354561D01*
X4729561Y1362008D01*
X4720439Y1367274D01*
X4710266Y1370000D01*
D02*
G37*
G36*
X4105266D02*
X4094734D01*
X4084561Y1367274D01*
X4075439Y1362008D01*
X4067992Y1354561D01*
X4062726Y1345439D01*
X4060000Y1335266D01*
Y1324734D01*
X4062726Y1314561D01*
X4067992Y1305439D01*
X4075439Y1297992D01*
X4084561Y1292726D01*
X4094734Y1290000D01*
X4105266D01*
X4115439Y1292726D01*
X4124561Y1297992D01*
X4132008Y1305439D01*
X4137274Y1314561D01*
X4140000Y1324734D01*
Y1335266D01*
X4137274Y1345439D01*
X4132008Y1354561D01*
X4124561Y1362008D01*
X4115439Y1367274D01*
X4105266Y1370000D01*
D02*
G37*
G36*
X3525266D02*
X3514734D01*
X3504561Y1367274D01*
X3495439Y1362008D01*
X3487992Y1354561D01*
X3482726Y1345439D01*
X3480000Y1335266D01*
Y1324734D01*
X3482726Y1314561D01*
X3487992Y1305439D01*
X3495439Y1297992D01*
X3504561Y1292726D01*
X3514734Y1290000D01*
X3525266D01*
X3535439Y1292726D01*
X3544561Y1297992D01*
X3552008Y1305439D01*
X3557274Y1314561D01*
X3560000Y1324734D01*
Y1335266D01*
X3557274Y1345439D01*
X3552008Y1354561D01*
X3544561Y1362008D01*
X3535439Y1367274D01*
X3525266Y1370000D01*
D02*
G37*
G36*
X7806500Y1289370D02*
X7805000D01*
Y1245000D01*
X7849370D01*
Y1246500D01*
X7846006Y1259056D01*
X7839506Y1270314D01*
X7830314Y1279506D01*
X7819056Y1286006D01*
X7806500Y1289370D01*
D02*
G37*
G36*
X7795000D02*
X7793500D01*
X7780944Y1286006D01*
X7769686Y1279506D01*
X7760494Y1270314D01*
X7753994Y1259056D01*
X7750630Y1246500D01*
Y1245000D01*
X7795000D01*
Y1289370D01*
D02*
G37*
G36*
X8465204Y1289527D02*
X8454796D01*
X8444743Y1286834D01*
X8435729Y1281630D01*
X8428370Y1274271D01*
X8423166Y1265257D01*
X8420472Y1255204D01*
Y1244796D01*
X8423166Y1234743D01*
X8428370Y1225729D01*
X8435729Y1218370D01*
X8444743Y1213166D01*
X8454796Y1210473D01*
X8465204D01*
X8475257Y1213166D01*
X8484271Y1218370D01*
X8491630Y1225729D01*
X8496834Y1234743D01*
X8499528Y1244796D01*
Y1255204D01*
X8496834Y1265257D01*
X8491630Y1274271D01*
X8484271Y1281630D01*
X8475257Y1286834D01*
X8465204Y1289527D01*
D02*
G37*
G36*
X8366778D02*
X8356370D01*
X8346317Y1286834D01*
X8337303Y1281630D01*
X8329944Y1274271D01*
X8324740Y1265257D01*
X8322047Y1255204D01*
Y1244796D01*
X8324740Y1234743D01*
X8329944Y1225729D01*
X8337303Y1218370D01*
X8346317Y1213166D01*
X8356370Y1210473D01*
X8366778D01*
X8376831Y1213166D01*
X8385844Y1218370D01*
X8393204Y1225729D01*
X8398408Y1234743D01*
X8401102Y1244796D01*
Y1255204D01*
X8398408Y1265257D01*
X8393204Y1274271D01*
X8385844Y1281630D01*
X8376831Y1286834D01*
X8366778Y1289527D01*
D02*
G37*
G36*
X8302677D02*
X8223622D01*
Y1210473D01*
X8302677D01*
Y1289527D01*
D02*
G37*
G36*
X8783372Y1260000D02*
X8780000D01*
Y1180000D01*
X8860000D01*
Y1183372D01*
X8856734Y1199794D01*
X8850326Y1215263D01*
X8841024Y1229184D01*
X8829184Y1241024D01*
X8815263Y1250326D01*
X8799794Y1256734D01*
X8783372Y1260000D01*
D02*
G37*
G36*
X8770000D02*
X8766628D01*
X8750206Y1256734D01*
X8734737Y1250326D01*
X8720816Y1241024D01*
X8708976Y1229184D01*
X8699674Y1215263D01*
X8693266Y1199794D01*
X8690000Y1183372D01*
Y1180000D01*
X8770000D01*
Y1260000D01*
D02*
G37*
G36*
X183372D02*
X180000D01*
Y1180000D01*
X260000D01*
Y1183372D01*
X256733Y1199794D01*
X250326Y1215263D01*
X241024Y1229184D01*
X229184Y1241024D01*
X215263Y1250326D01*
X199794Y1256734D01*
X183372Y1260000D01*
D02*
G37*
G36*
X170000D02*
X166628D01*
X150206Y1256734D01*
X134737Y1250326D01*
X120816Y1241024D01*
X108976Y1229184D01*
X99674Y1215263D01*
X93266Y1199794D01*
X90000Y1183372D01*
Y1180000D01*
X170000D01*
Y1260000D01*
D02*
G37*
G36*
X7501249Y1187500D02*
X7488743D01*
X7476662Y1184263D01*
X7465830Y1178009D01*
X7456986Y1169166D01*
X7450733Y1158334D01*
X7447496Y1146254D01*
Y1133746D01*
X7450733Y1121666D01*
X7456986Y1110834D01*
X7465830Y1101991D01*
X7476662Y1095737D01*
X7488743Y1092500D01*
X7501249D01*
X7513330Y1095737D01*
X7524162Y1101991D01*
X7533006Y1110834D01*
X7539259Y1121666D01*
X7542496Y1133746D01*
Y1146254D01*
X7539259Y1158334D01*
X7533006Y1169166D01*
X7524162Y1178009D01*
X7513330Y1184263D01*
X7501249Y1187500D01*
D02*
G37*
G36*
X7849370Y1235000D02*
X7800000D01*
X7750630D01*
Y1233500D01*
X7753994Y1220944D01*
X7760494Y1209686D01*
X7769686Y1200494D01*
X7776156Y1196759D01*
X7777484Y1190219D01*
X7776843Y1189370D01*
X7750630D01*
Y1090630D01*
X7849370D01*
Y1189370D01*
X7823157D01*
X7822516Y1190219D01*
X7823844Y1196759D01*
X7830314Y1200494D01*
X7839506Y1209686D01*
X7846006Y1220944D01*
X7849370Y1233500D01*
Y1235000D01*
D02*
G37*
G36*
X8860000Y1170000D02*
X8780000D01*
Y1090000D01*
X8783372D01*
X8799794Y1093266D01*
X8815263Y1099674D01*
X8829184Y1108976D01*
X8841024Y1120816D01*
X8850326Y1134737D01*
X8856734Y1150206D01*
X8860000Y1166628D01*
Y1170000D01*
D02*
G37*
G36*
X8770000D02*
X8690000D01*
Y1166628D01*
X8693266Y1150206D01*
X8699674Y1134737D01*
X8708976Y1120816D01*
X8720816Y1108976D01*
X8734737Y1099674D01*
X8750206Y1093266D01*
X8766628Y1090000D01*
X8770000D01*
Y1170000D01*
D02*
G37*
G36*
X260000D02*
X180000D01*
Y1090000D01*
X183372D01*
X199794Y1093266D01*
X215263Y1099674D01*
X229184Y1108976D01*
X241024Y1120816D01*
X250326Y1134737D01*
X256733Y1150206D01*
X260000Y1166628D01*
Y1170000D01*
D02*
G37*
G36*
X170000D02*
X90000D01*
Y1166628D01*
X93266Y1150206D01*
X99674Y1134737D01*
X108976Y1120816D01*
X120816Y1108976D01*
X134737Y1099674D01*
X150206Y1093266D01*
X166628Y1090000D01*
X170000D01*
Y1170000D01*
D02*
G37*
%LPD*%
D11*
X6295000Y4390000D02*
X6395000Y4290000D01*
X4145000Y4275000D02*
X4680000D01*
X4080000Y4210000D02*
X4145000Y4275000D01*
X4080000Y4040000D02*
Y4210000D01*
X7043466Y4290000D02*
X7048466Y4295000D01*
X6645000Y4290000D02*
X7043466D01*
X6600000Y1526850D02*
X6880000D01*
X6595000D02*
X6665012D01*
X6670000Y1531838D02*
Y1976850D01*
X6665012Y1526850D02*
X6670000Y1531838D01*
X6595000Y2051850D02*
X6670000Y1976850D01*
X6310000Y1526850D02*
X6595000D01*
X3815000Y2765000D02*
X4095000D01*
X3465000D02*
X3815000D01*
X4095000D02*
X4380000D01*
X4740000D01*
X5125004D01*
X5760004Y2760000D02*
X6005004D01*
X6290004D01*
X5465004Y2765000D02*
X5610000D01*
X5615000Y2760000D01*
X5760004D01*
X6290004D02*
X6437000D01*
X6442000Y2765000D01*
X6590004D01*
X5125004D02*
X5465004D01*
X6590004D02*
X6762000D01*
X6767000Y2760000D01*
X6940004D01*
X5775000Y1526850D02*
X6310000D01*
X5200000D02*
X5775000D01*
X4705000D02*
X5200000D01*
X4100000D02*
X4705000D01*
X3520000D02*
X4100000D01*
X6035000Y2051850D02*
X6595000D01*
X5475000D02*
X6035000D01*
X3825000D02*
X4375000D01*
X4680000Y4275000D02*
X4852000D01*
X4877000Y4300000D01*
X5025000D01*
X5094004Y4169000D02*
X5225004Y4300000D01*
X4794000Y4169000D02*
X5094004D01*
X4555000Y3930000D02*
X4794000Y4169000D01*
X6395000Y4290000D02*
X6645000D01*
Y4190000D02*
X6720000Y4115000D01*
X7006732D01*
D12*
X6280000Y4185000D02*
X6295000Y4200000D01*
X6205000Y4185000D02*
X6280000D01*
X6155000Y4235000D02*
X6205000Y4185000D01*
X6155000Y4235000D02*
Y4575000D01*
X5225004Y4700000D02*
X6030000D01*
X6155000Y4575000D01*
X7260000Y4190000D02*
X7527000D01*
X7021732Y4428268D02*
X7260000Y4190000D01*
X7021732Y4428268D02*
Y4490000D01*
X6945000Y4566732D02*
Y4740004D01*
Y4566732D02*
X7021732Y4490000D01*
X7527000Y4190000D02*
X7575000Y4142000D01*
X7694000Y1910000D02*
X7815000D01*
X7575000Y2029000D02*
X7694000Y1910000D01*
X7575000Y2029000D02*
Y4142000D01*
X5025000Y4700000D02*
X5225004D01*
X6645000Y4490000D02*
X7021732D01*
X4561850Y4660000D02*
X4601850Y4700000D01*
X5025000D01*
D14*
X6645000Y4190000D02*
D03*
Y4290000D02*
D03*
Y4390000D02*
D03*
Y4490000D02*
D03*
X6295000Y4190000D02*
D03*
Y4290000D02*
D03*
Y4390000D02*
D03*
X8460000Y1250000D02*
D03*
X8361574D02*
D03*
D15*
X6295000Y4490000D02*
D03*
X8263150Y1250000D02*
D03*
D16*
X4365000Y4660000D02*
D03*
X4561850D02*
D03*
X3825000Y1855000D02*
D03*
Y2051850D02*
D03*
X8325000Y1758150D02*
D03*
Y1955000D02*
D03*
X8010000Y1741732D02*
D03*
Y1958268D02*
D03*
X4555000Y3930000D02*
D03*
X4751850D02*
D03*
X5775000Y1330000D02*
D03*
Y1526850D02*
D03*
X6595000Y1855000D02*
D03*
Y2051850D02*
D03*
X6035000Y1855000D02*
D03*
Y2051850D02*
D03*
X5475000Y1855000D02*
D03*
Y2051850D02*
D03*
X4705000Y1330000D02*
D03*
Y1526850D02*
D03*
X4375000Y1855000D02*
D03*
Y2051850D02*
D03*
X4100000Y1330000D02*
D03*
Y1526850D02*
D03*
X6880000Y1330000D02*
D03*
Y1526850D02*
D03*
X6310000Y1330000D02*
D03*
Y1526850D02*
D03*
X5200000Y1330000D02*
D03*
Y1526850D02*
D03*
X3520000Y1330000D02*
D03*
Y1526850D02*
D03*
X7223268Y4115000D02*
D03*
X7006732D02*
D03*
X7238268Y4490000D02*
D03*
X7021732D02*
D03*
X7265000Y4295000D02*
D03*
X7048466D02*
D03*
D17*
X4080000Y4040000D02*
D03*
X4130000D02*
D03*
D18*
X4180000D02*
D03*
D19*
X7695000Y3479000D02*
D03*
X8575000Y4010000D02*
D03*
Y2948000D02*
D03*
D20*
X7888000Y2492000D02*
D03*
X8388000D02*
D03*
D21*
X7800000Y1240000D02*
D03*
D22*
Y1140000D02*
D03*
D23*
X8775000Y4825000D02*
D03*
Y1175000D02*
D03*
X175000D02*
D03*
Y4800000D02*
D03*
D24*
X7815000Y1810000D02*
D03*
Y1860000D02*
D03*
D25*
Y1910000D02*
D03*
D26*
X7530000Y1963426D02*
D03*
Y1766574D02*
D03*
D27*
X3705000Y4389996D02*
D03*
X4105000D02*
D03*
X7494996Y1540000D02*
D03*
Y1140000D02*
D03*
X5225004Y4300000D02*
D03*
Y4700000D02*
D03*
X5760004Y2360000D02*
D03*
Y2760000D02*
D03*
X5465004Y2365000D02*
D03*
Y2765000D02*
D03*
X5125004Y2365000D02*
D03*
Y2765000D02*
D03*
X3815000Y2365000D02*
D03*
Y2765000D02*
D03*
X6940004Y2360000D02*
D03*
Y2760000D02*
D03*
X6590004Y2365000D02*
D03*
Y2765000D02*
D03*
X6290004Y2360000D02*
D03*
Y2760000D02*
D03*
X6005004Y2360000D02*
D03*
Y2760000D02*
D03*
X4740000Y2365000D02*
D03*
Y2765000D02*
D03*
X4380000Y2365000D02*
D03*
Y2765000D02*
D03*
X4095000Y2365000D02*
D03*
Y2765000D02*
D03*
X3465000Y2365000D02*
D03*
Y2765000D02*
D03*
X7345000Y4740004D02*
D03*
X6945000D02*
D03*
D28*
X4680000Y4275000D02*
D03*
D29*
Y4375000D02*
D03*
D30*
X5025000Y4700000D02*
D03*
Y4300000D02*
D03*
%TF.MD5,d7354e16961c39b30043edc625fbcb6b*%
M02*
