M48
;Layer_Color=9474304
;FILE_FORMAT=2:5
INCH,LZ
;TYPE=PLATED
T1F00S00C0.02500
T2F00S00C0.02900
T3F00S00C0.03000
T4F00S00C0.03150
T5F00S00C0.03200
T6F00S00C0.03543
T7F00S00C0.03937
T8F00S00C0.04000
T9F00S00C0.04016
T10F00S00C0.12500
;TYPE=NON_PLATED
T11F00S00C0.09000
%
T01
X0753Y0176657
Y0196343
T02
X07495Y0114
Y0154
X0694Y0236
X0659Y02365
X0629Y0236
Y0276
X0659Y02765
X0694Y0276
X06005
X0576
X05465Y02765
X05125
X0474
Y02365
X05125
X05465
X0576Y0236
X06005
X0438Y02365
X04095
X03815
X03465
Y02765
X03815
X04095
X0438
X04105Y0439
X03705
X05225Y043
X06945Y0474
X07345
X05225Y047
T03
X0801Y0174173
Y0195827
X08325Y01955
Y0175815
X04555Y0393
X0456185Y0466
X04365
X0475185Y0393
X0700673Y04115
X0722327
X07265Y04295
X0704847
X0702173Y0449
X0723827
T04
X0408Y0404
X0413
X0418
T05
X06295Y0419
Y0429
Y0439
Y0449
X06645
Y0439
Y0429
Y0419
T06
X07815Y0181
Y0186
Y0191
T07
X0352Y0133
Y0152685
X041
Y0133
X04705
Y0152685
X052
Y0133
X05775
Y0152685
X0631
Y0133
X0688
Y0152685
X078Y0124
Y0114
X0826315Y0125
X0836157
X0846
X06595Y01855
Y0205185
X06035
Y01855
X05475
Y0205185
X04375
Y01855
X03825
Y0205185
T08
X07888Y02492
X08388
X05025Y043
Y047
T09
X0468Y04275
Y04375
T10
X00175Y01175
X08775
Y04825
X00175Y048
T11
X08575Y02948
X07695Y03479
X08575Y0401
M30
